<?xml version="1.0" standalone="no"?>
<!DOCTYPE svg PUBLIC "-//W3C//DTD SVG 20010904//EN"
 "http://www.w3.org/TR/2001/REC-SVG-20010904/DTD/svg10.dtd">
<svg version="1.0" xmlns="http://www.w3.org/2000/svg" viewBox="0 0 512.000000 512.000000"
 preserveAspectRatio="xMidYMid meet">

<g transform="translate(0.000000,512.000000) scale(0.100000,-0.100000)"
fill="#000000" stroke="none">
<path d="M452 5100 c-109 -29 -187 -74 -272 -160 -87 -86 -131 -163 -160 -276
-20 -76 -20 -118 -20 -2104 0 -1986 0 -2028 20 -2104 29 -113 73 -190 160
-276 86 -87 163 -131 276 -160 76 -20 118 -20 2104 -20 1986 0 2028 0 2104 20
113 29 190 73 276 160 87 86 131 163 160 276 20 76 20 118 20 2104 0 1986 0
2028 -20 2104 -29 113 -73 190 -160 276 -86 87 -163 131 -276 160 -76 20 -117
20 -2108 19 -1967 0 -2033 -1 -2104 -19z m4171 -409 c21 -13 50 -42 65 -64
l27 -41 0 -2025 0 -2026 -24 -38 c-13 -21 -42 -50 -64 -65 l-41 -27 -2026 0
-2026 0 -41 27 c-22 15 -51 44 -64 65 l-24 38 -3 2004 c-1 1390 1 2015 8 2043
13 47 77 114 122 127 21 6 793 9 2043 8 l2010 -2 38 -24z"/>
<path d="M760 3760 l0 -600 200 0 200 0 0 257 0 258 428 -428 427 -427 143
142 142 143 -427 427 -428 428 258 0 257 0 0 200 0 200 -600 0 -600 0 0 -600z"/>
<path d="M3160 4160 l0 -200 257 0 258 0 -429 -429 -429 -430 144 -140 144
-140 428 427 427 427 0 -258 0 -257 200 0 200 0 0 600 0 600 -600 0 -600 0 0
-200z"/>
<path d="M1587 1873 l-427 -428 0 258 0 257 -200 0 -200 0 0 -600 0 -600 600
0 600 0 0 200 0 200 -257 0 -258 0 430 430 430 430 -140 140 c-77 77 -142 140
-145 140 -3 0 -197 -192 -433 -427z"/>
<path d="M2959 2161 l-144 -140 430 -430 430 -431 -258 0 -257 0 0 -200 0
-200 600 0 600 0 0 600 0 600 -200 0 -200 0 0 -257 0 -258 -428 428 -428 428
-145 -140z"/>
</g>
</svg>
