<?xml version="1.0" standalone="no"?>
<!DOCTYPE svg PUBLIC "-//W3C//DTD SVG 20010904//EN"
 "http://www.w3.org/TR/2001/REC-SVG-20010904/DTD/svg10.dtd">
<svg version="1.0" xmlns="http://www.w3.org/2000/svg"
 width="512.000000pt" height="512.000000pt" viewBox="0 0 512.000000 512.000000"
 preserveAspectRatio="xMidYMid meet">

<g transform="translate(0.000000,512.000000) scale(0.100000,-0.100000)"
fill="#ffffff" stroke="none">
<path d="M732 4463 c-66 -32 -101 -105 -87 -180 6 -33 60 -91 448 -480 l441
-443 -304 0 c-280 0 -308 -2 -348 -20 -108 -49 -108 -231 0 -280 41 -19 69
-20 558 -20 489 0 517 1 558 20 33 15 47 29 62 62 19 41 20 69 20 558 0 489
-1 517 -20 558 -15 33 -29 47 -62 62 -88 40 -184 12 -218 -62 -18 -40 -20 -68
-20 -348 l0 -305 -437 437 c-241 240 -451 442 -466 447 -40 15 -87 13 -125 -6z"/>
<path d="M4255 4464 c-16 -8 -225 -209 -462 -447 l-433 -432 0 305 c0 280 -2
308 -20 348 -49 108 -231 108 -280 0 -19 -41 -20 -69 -20 -558 0 -489 1 -517
20 -558 15 -33 29 -47 62 -62 41 -19 69 -20 558 -20 489 0 517 1 558 20 108
49 108 231 0 280 -40 18 -68 20 -348 20 l-304 0 441 443 c475 475 466 465 449
549 -19 96 -136 156 -221 112z"/>
<path d="M882 2060 c-108 -49 -108 -231 0 -280 40 -18 68 -20 348 -20 l304 0
-441 -442 c-477 -479 -465 -464 -449 -554 9 -47 73 -111 120 -120 90 -16 75
-28 554 449 l442 441 0 -304 c0 -280 2 -308 20 -348 49 -108 231 -108 280 0
19 41 20 69 20 558 0 489 -1 517 -20 558 -15 33 -29 47 -62 62 -41 19 -69 20
-558 20 -489 0 -517 -1 -558 -20z"/>
<path d="M3122 2060 c-33 -15 -47 -29 -62 -62 -19 -41 -20 -69 -20 -558 0
-489 1 -517 20 -558 34 -74 130 -102 218 -62 33 15 47 29 62 62 18 40 20 68
20 348 l0 304 443 -441 c478 -477 463 -465 553 -449 47 9 111 73 120 120 16
90 28 75 -449 554 l-441 442 304 0 c280 0 308 2 348 20 108 49 108 231 0 280
-41 19 -69 20 -558 20 -489 0 -517 -1 -558 -20z"/>
</g>
</svg>
